<?xml version="1.0" encoding="UTF-8" standalone="no"?>
<svg
   xmlns:dc="http://purl.org/dc/elements/1.1/"
   xmlns:cc="http://creativecommons.org/ns#"
   xmlns:rdf="http://www.w3.org/1999/02/22-rdf-syntax-ns#"
   xmlns:svg="http://www.w3.org/2000/svg"
   xmlns="http://www.w3.org/2000/svg"
   xmlns:sodipodi="http://sodipodi.sourceforge.net/DTD/sodipodi-0.dtd"
   xmlns:inkscape="http://www.inkscape.org/namespaces/inkscape"
   width="55"
   height="36"
   version="1.1"
   id="svg116"
   sodipodi:docname="ZeroSingleImage (1).svg"
   inkscape:version="1.0.2 (e86c870, 2021-01-15)">
  <metadata
     id="metadata122">
    <rdf:RDF>
      <cc:Work
         rdf:about="">
        <dc:format>image/svg+xml</dc:format>
        <dc:type
           rdf:resource="http://purl.org/dc/dcmitype/StillImage" />
      </cc:Work>
    </rdf:RDF>
  </metadata>
  <defs
     id="defs120" />
  <sodipodi:namedview
     pagecolor="#ffffff"
     bordercolor="#666666"
     borderopacity="1"
     objecttolerance="10"
     gridtolerance="10"
     guidetolerance="10"
     inkscape:pageopacity="0"
     inkscape:pageshadow="2"
     inkscape:window-width="1920"
     inkscape:window-height="1001"
     id="namedview118"
     showgrid="false"
     inkscape:zoom="15.839192"
     inkscape:cx="40.740469"
     inkscape:cy="15.006941"
     inkscape:window-x="-9"
     inkscape:window-y="-9"
     inkscape:window-maximized="1"
     inkscape:current-layer="svg116" />
  <path
     style="fill:#b55500;stroke:none"
     d="M 19,11 C 18,13 35.2207,10.0976 34.4236,12.7724 33.622,15.4623 27.3349,16.2696 25,17 c 3.4058,2.2238 6.2908,1.1653 10,0 -6.4577,4.2438 -13.7578,1.6401 -16,-6 -4.4835,11.0222 13.6902,16.4367 18.821,6.9452 1.1124,-2.0578 1.2915,-4.6536 1.0663,-6.9444 C 38.6779,8.86963 38.0263,6.95387 36.5679,5.34414 26.121348,-0.84895251 21.091522,5.6135449 19,11 Z"
     id="path14"
     sodipodi:nodetypes="csccccccc" />
  <path
     style="fill:#da6801;stroke:none"
     d="m 22,7 c 3.8599,0.16297 4.385082,2.1311908 6.052982,5.568211 C 36.474682,8.1357208 25.8313,-3.42031 22,7 Z"
     id="path12"
     sodipodi:nodetypes="ccc" />
  <path
     style="fill:#7f7f00; stroke:none;"
     d="M22 3L23 4L22 3z"
     id="path16" />
  <path
     style="fill:#cd6100;stroke:none"
     d="M 20.684327,8.1037447 C 18.186227,12.271825 16.8366,16.251 24.0193,17.0077 26.6768,17.2877 29.5262,15.7905 32,15 l -1,-3 c -8.624,3.3411 -11.0774,2.6345 -8,-6 z"
     id="path18"
     sodipodi:nodetypes="cccccc" />
  <path
     style="fill:#c65e00; stroke:none;"
     d="M3.31867 6.03164C-1.65706 9.2952 3.9622 15.8538 8.6821 12.8164C13.9336 9.43682 8.15901 2.85687 3.31867 6.03164z"
     id="path20" />
  <path
     style="fill:#b55500;stroke:none;stroke-width:1.04658"
     d="M 44.561619,7.9270935 C 50.21153,11.744893 43.30552,9.4949237 43.743922,14.232233 58.885887,23.709206 56.494555,-1.5816967 44.561619,7.9270935 Z"
     id="path22"
     sodipodi:nodetypes="ccc" />
  <path
     style="fill:#e16b01; stroke:none;"
     d="M3 12C13.1215 11.2113 3.7887 1.87851 3 12z"
     id="path24" />
  <path
     style="fill:#550000; stroke:none;"
     d="M19 6L20 7L19 6z"
     id="path26" />
  <path
     style="fill:#c28e5f; stroke:none;"
     d="M23 6C24.2484 6.6848 24.5484 6.74879 26 7C24.7516 6.3152 24.4516 6.25121 23 6z"
     id="path28" />
  <path
     style="fill:#d36400; stroke:none;"
     d="M45.5278 7.04321C41.1897 10.0863 45.5632 18.5412 50.3974 14.8164C54.3651 11.7591 50.3333 3.67223 45.5278 7.04321z"
     id="path30" />
  <path
     style="fill:#b55500; stroke:none;"
     d="M11 7C9.88505 14.051 3.09889 15.2302 1 8C-3.97553 20.2203 17.4235 18.9624 11 7z"
     id="path32" />
  <path
     style="fill:#a090a9; stroke:none;"
     d="M20 12C22.3086 10.083 24.1054 8.79881 27 8C23.1937 6.571 21.1139 8.32977 20 12z"
     id="path34" />
  <path
     style="fill:#834fc9; stroke:none;"
     d="M26 8L27 12C27.7511 9.95354 27.6556 9.40432 26 8z"
     id="path38" />
  <path
     style="fill:#ab9c96; stroke:none;"
     d="M28 9C26.2052 12.4534 24.7436 13.024 21 12C23.8106 16.315 29.6361 14.1461 28 9z"
     id="path40" />
  <path
     style="fill:#6300e8; stroke:none;"
     d="M23.564 9.1713C21.5733 10.4706 23.2409 14.2614 25.436 12.8287C27.4267 11.5293 25.7591 7.73856 23.564 9.1713z"
     id="path36" />
  <path
     style="fill:#7f3f00; stroke:none;"
     d="M43 9L44 10L43 9z"
     id="path42" />
  <path
     style="fill:#e56d01;stroke:none"
     d="m 50,14 c 1.767767,-0.656514 1.38896,-3.585871 0,-5 -2.822806,-2.8739565 -10.042363,5.115018 0,5 z"
     id="path44"
     sodipodi:nodetypes="csc" />
  <path
     style="fill:#8657c6; stroke:none;"
     d="M21.3333 10.6667C21.2778 10.7222 21.2222 11.7778 21.6667 11.3333C21.7222 11.2778 21.7778 10.2222 21.3333 10.6667z"
     id="path46" />
  <path
     style="fill:#a6a5a6; stroke:none;"
     d="M31 10C31.4176 12.6894 31.7173 13.5537 34 15C33.532 12.7527 33.3123 12.4262 35 11C33.494 10.317 32.6852 10.1741 31 10z"
     id="path48" />
  <path
     style="fill:#acacac; stroke:none;"
     d="M12 11L12 13L18 13L18 11L12 11z"
     id="path50" />
  <path
     style="fill:#6300e8;stroke:none"
     d="m 32,11 c -0.471405,0.471405 -0.471405,1.528595 0,2 0.471405,0.471405 1.528595,0.471405 2,0 0.471405,-0.471405 0.471405,-1.528595 0,-2 -0.471405,-0.471405 -1.528595,-0.471405 -2,0 z"
     id="path52"
     sodipodi:nodetypes="sssss" />
  <path
     style="fill:#7a3ad1; stroke:none;"
     d="M34.3333 11.6667C34.2778 11.7222 34.2222 12.7778 34.6667 12.3333C34.7222 12.2778 34.7778 11.2222 34.3333 11.6667z"
     id="path54" />
  <path
     style="fill:#a6a2a3; stroke:none;"
     d="M35.3333 11.6667C35.2778 11.7222 35.2222 12.7778 35.6667 12.3333C35.7222 12.2778 35.7778 11.2222 35.3333 11.6667z"
     id="path56" />
  <path
     style="fill:#acacac; stroke:none;"
     d="M39 11L39 13L44 13L44 11L39 11z"
     id="path58" />
  <path
     style="fill:#bf844f; stroke:none;"
     d="M20 12L21 13L20 12z"
     id="path60" />
  <path
     style="fill:#7e42ce; stroke:none;"
     d="M33 13L34 14L33 13z"
     id="path64" />
  <path
     style="fill:#ab8668; stroke:none;"
     d="M34 13L34 15C35.6352 14.4549 35.4549 14.6352 36 13L34 13z"
     id="path66" />
  <path
     style="fill:#ba916c; stroke:none;"
     d="M32 19C33.58 18.3164 33.7772 18.1952 35 17C33.42 17.6836 33.2228 17.8048 32 19z"
     id="path72" />
  <path
     style="fill:#beac9c; stroke:none;"
     d="M25 18L26 19L25 18z"
     id="path74" />
  <path
     style="fill:#adadad; stroke:none;"
     d="M16 28C19.3778 26.5679 21.6811 24.8406 24 22C19.7635 22.1877 17.7964 24.2413 16 28z"
     id="path84" />
  <path
     style="fill:#b0835b; stroke:none;"
     d="M23 21L24 22L23 21z"
     id="path86" />
  <path
     style="fill:#adadad; stroke:none;"
     d="M32 22C33.4326 25.1825 34.9691 27.2422 38 29C36.9586 25.3221 35.4363 23.6531 32 22z"
     id="path88" />
  <path
     style="fill:#555555; stroke:none;"
     d="M16 25L17 26L16 25z"
     id="path90" />
  <path
     style="fill:#d16300; stroke:none;"
     d="M7 30C8.40406 29.3457 10.3065 27.9881 11.9267 28.1435C15.1767 28.4552 13.4 31.0135 12 32C18.8647 34.2499 15.7645 22.7221 8.61034 27.4444C7.72085 28.0316 7.46592 29.1552 7 30z"
     id="path92" />
  <path
     style="fill:#b57f57; stroke:none;"
     d="M15 26L16 27L15 26z"
     id="path94" />
  <path
     style="fill:#7f7f00; stroke:none;"
     d="M7 27L8 28L7 27z"
     id="path96" />
  <path
     style="fill:#e76d01; stroke:none;"
     d="M15 32C13.6407 23.856 5.77769 31.2819 15 32z"
     id="path98" />
  <path
     style="fill:#7f7f7f; stroke:none;"
     d="M35 27L36 28L35 27z"
     id="path100" />
  <path
     style="fill:#b45300; stroke:none;"
     d="M39 28C41.1475 29.5756 42.6876 30.6748 44 33C45.7968 33 45.5215 32.9857 47 32C45.0904 28.453 42.9729 27.4539 39 28z"
     id="path104" />
  <path
     style="fill:#b55500; stroke:none;"
     d="M17 28C16.3591 30.4246 15.4856 31.9714 14 34L18 35C18.4338 32.177 18.4226 30.4826 17 28z"
     id="path106" />
  <path
     style="fill:#7f3f00; stroke:none;"
     d="M36 29L37 30L36 29z"
     id="path108" />
  <path
     style="fill:#cd6100; stroke:none;"
     d="M37 36C37.21 31.2027 39.8608 30.7452 43 34L44 30C40.0431 29.104 31.5875 31.1713 37 36z"
     id="path110" />
  <path
     style="fill:#7f7f00; stroke:none;"
     d="M8 30L9 31L8 30z"
     id="path112" />
  <path
     style="fill:#e56d01; stroke:none;"
     d="M37 36C45.6055 32.8311 35.799 27.7881 37 36z"
     id="path114" />
</svg>
